<svg t="1580375289142" class="icon" viewBox="0 0 1024 1024" version="1.1" xmlns="http://www.w3.org/2000/svg" p-id="6869" width="32" height="32"><path d="M505.1 470.3m-391.7 0a391.7 391.7 0 1 0 783.4 0 391.7 391.7 0 1 0-783.4 0Z" fill="#FFFFFF" p-id="6870"></path><path d="M505.1 890C273.7 890 85.4 701.7 85.4 470.3S273.7 50.6 505.1 50.6s419.7 188.3 419.7 419.7S736.5 890 505.1 890z m0-783.4c-200.6 0-363.7 163.2-363.7 363.7S304.5 834 505.1 834s363.7-163.2 363.7-363.7-163.1-363.7-363.7-363.7z" fill="" p-id="6871"></path></svg>